# xmcd
#
# Track frame offsets:
#	150
#	11040
#	24655
#	37122
#	49300
#	61295
#	73070
#	85880
#	98325
#	111702
#	126650
#	140272
#	153442
#	163325
#	176880
#	189512
#
# Disc length: 2715 seconds
#
# Revision: 1
# Processed by: cddbd v1.5.2PL0 Copyright (c) Steve Scherf et al.
# Submitted via: audiograbber 1.83.01
#
DISCID=ed0a9910
DTITLE=Various Artist - Soul Sisters and Brothers
DYEAR=1994
DGENRE=Soul
TTITLE0=Sam and Dave - Sweet Soul Music
TTITLE1=Eddie Floyd - Knock On Wood
TTITLE2=Carla Thomas - Baby
TTITLE3=The Drifters - Under The Boardwalk
TTITLE4=Barbara Lynn - You'll Lose A Good Thing
TTITLE5=Martha Reeves - Dancing In The Streets
TTITLE6=Bob and Earl - Harlem Shuffle
TTITLE7=Mary Wells - My Guy
TTITLE8=Clarence Carter - Patches
TTITLE9=Martha Reeves - I Heard It Through The Grapevine
TTITLE10=Ben E. King - Stand By Me
TTITLE11=The Foundations - Build Me Up Buttercup
TTITLE12=Ike and Tina Turner - Beauty Is Only Skindeep
TTITLE13=Percy Sledge - Special Prayer
TTITLE14=Fontella Bass - Rescue Me
TTITLE15=Billy Ocean - Love Really Hurts Without You
EXTD=
EXTT0=
EXTT1=
EXTT2=
EXTT3=
EXTT4=
EXTT5=
EXTT6=
EXTT7=
EXTT8=
EXTT9=
EXTT10=
EXTT11=
EXTT12=
EXTT13=
EXTT14=
EXTT15=
PLAYORDER=
